Patient4_TMGait_0pt4_03_left_24_EMG.mot
version=1
nRows=26
nColumns=33
inDegrees=no
endheader
time	1LAddLong	2LGlutMax	3LGlutMed	4LIliopsoas	5LSemiMemb	6LBicFemLong	7LRecFem	8LVastMed	9LVastLat	10LGasMed	11LTibAnt	12lTibPost	13LPeroneusLong	14LSol	15LExtDigLong	16LFlexDigLong	17RAddLong	18RGlutMax	19RGlutMed	20RIliopsoas	21RSemiMemb	22RBicFemLong	23RRecFem	24RVastMed	25RVastLat	26RGasMed	27RTibAnt	28RTibPost	29RPeroneusLong	30RSol	31RExtDigLong	32RFlexDigLong
31.955	0.006866	0.039215	0.050201	0.015411	-0.080261	-0.18295	0.024872	0.013123	-0.087433	0.03952	-0.00824	0.017395	0.00885	0.14465	-0.011902	0.004883	-0.011597	-0.23224	-0.2652	0.003357	-0.001221	0.21729	0.42999	-0.031128	0.023346	0.009613	0.050659	0.000153	-0.037079	0.10193	-0.002136	-0.016327
31.956	0.005035	0.1358	0.052795	0.007172	-0.069275	-0.19684	-0.061188	0.011139	-0.078583	0.04776	0.000153	0.010529	0.094452	0.015869	0.007324	0.038147	0.02533	-0.25742	-0.22446	-0.026398	0.031128	0.24857	0.37781	-0.040436	0.037384	0.014801	0.068665	-0.011444	0.042572	-0.19257	-0.001984	-0.011292
31.957	0.010681	0.11063	0.10361	-0.003815	0.006866	-0.074615	-0.15106	0.017548	-0.060425	0.17777	-0.006104	0.005188	0.12955	-0.031433	0.02121	0.016479	0.041046	-0.25421	-0.11612	-0.012665	0.069427	0.15732	0.41596	-0.031128	0.027313	0.013123	0.063324	-0.020752	-0.057373	-0.37354	-0.000916	-0.013123
31.958	0.005188	0.11398	0.10803	0.001984	0.014954	-0.037079	-0.20844	0.033722	-0.052948	0.21896	-0.01358	-0.004425	0.14053	-0.1384	0.018463	0.00412	0.072327	-0.18387	0.029144	-0.02594	0.070648	0.11429	0.40466	-0.052948	0.017242	0.008087	0.037231	-0.02243	-0.11627	-0.39291	-0.002136	-0.014648
31.959	0.006409	0.044403	0.12375	-0.006561	0.006714	-0.031738	-0.29633	0.033875	-0.086975	0.25589	-0.011749	0.001984	0.12268	-0.27313	0.00473	0.016479	0.068817	-0.2475	0.13245	-0.093536	0.05722	0.007019	0.42358	-0.10757	0.014954	-0.001221	0.007477	-0.011749	-0.13046	-0.29602	0	-0.010071
31.96	0.000458	0.005188	-0.059662	-0.001678	-0.017395	0.007629	-0.36835	0.017853	-0.089569	0.25543	0.007935	-0.007782	0.24246	-0.19745	0.026855	0.032043	0.074463	-0.31723	0.043335	-0.098419	0.033417	-0.093079	0.41153	-0.070648	0.003052	-0.007324	-0.01297	-0.012054	-0.12634	-0.27435	-0.004883	-0.005951
31.961	-0.00473	-0.008392	-0.12741	0.003052	-0.043945	0.039978	-0.33341	0.00885	-0.02594	0.13123	-0.009613	-0.016022	0.40207	-0.071411	0.038605	0.022888	0.050049	-0.27634	-0.05188	-0.075836	-0.035095	-0.040283	0.42664	-0.080719	0.001068	-0.005798	-0.005035	-0.012207	-0.10498	-0.21027	-0.003357	-0.001373
31.962	-0.010834	0.019836	-0.057983	0.005188	-0.091095	0.065308	-0.27924	0.002899	-0.00351	-0.22415	-0.028687	-0.097198	0.12222	0.12329	0.086975	0.002289	-0.010681	-0.29984	0.000916	0.00473	-0.10956	0.077209	0.42664	-0.042114	0.018463	-0.005493	-0.001526	-0.014343	-0.041809	-0.090485	-0.003052	0.000763
31.963	-0.004425	-0.007935	-0.15915	0.001068	-0.075378	0.001068	-0.34195	0.002594	0.033722	-0.34119	-0.010071	0.15259	-0.46539	0.2153	0.032349	0.022583	-0.008545	-0.32318	0.098267	0.014954	-0.051575	0.16541	0.42389	0.010376	0.013885	-0.005798	0.005646	-0.012817	0.04776	0.00473	-0.006409	0.002441
31.964	0.003357	-0.028839	-0.12756	0.001678	-0.007019	-0.061951	-0.37354	0.007629	0.049591	-0.093689	0.021057	0.1088	-0.12909	-0.018921	-0.10071	0.027618	0.012665	-0.31357	0.17014	-0.03067	-0.024109	0.12299	0.41733	0.006256	0.016479	0.000458	-0.006409	-0.012054	0.060577	-0.013123	0.007935	-0.000153
31.965	0.00885	-0.10712	0.005646	0.0177	-0.031128	-0.029144	-0.4097	0.001221	0.046692	0.045471	0.009308	-0.13367	0.27527	0.024414	-0.059204	0.043182	0.047302	-0.31052	0.13657	-0.048065	-0.005035	0.068054	0.40802	0.001526	-0.00061	0.003967	-0.018158	-0.00946	0.027008	-0.069885	0.001221	-0.000763
31.966	0.011292	-0.1265	0.10162	-0.010376	-0.072327	0.029755	-0.45548	-0.005188	0.056915	0.005646	-0.025177	0.32028	-0.16708	0.42038	0.067444	0.096588	0.089722	-0.31586	-0.25375	0.024109	0.005798	0.04837	0.38269	0.002594	-0.02121	0.00946	-0.027161	-0.013885	-0.045929	-0.10208	-0.003662	-0.005493
31.967	0.006714	-0.13855	-0.021057	-0.011139	-0.085907	0.085754	-0.44937	0.00412	0.037537	0.094299	-0.027466	-0.14374	-0.19058	0.17624	-0.01709	0.051422	0.085449	-0.31647	-0.51315	0.063019	-0.005951	0.034943	0.38437	-0.020752	0.002136	0.005646	0.038147	-0.007629	-0.103	-0.028381	0.001373	-0.005341
31.968	-0.001678	-0.15823	-0.098724	0.010834	-0.086517	0.10208	-0.47714	0.019836	-0.029297	-0.007477	-0.019684	-0.24368	-0.16708	-0.13611	0.072937	0.022278	0.075073	-0.27878	-0.41916	0.065918	-0.029907	0.031128	0.3714	-0.030823	0.005951	0.000763	0.004883	-0.010681	-0.018768	0.012817	-0.003967	-0.003967
31.969	0	-0.19089	-0.048676	0.010529	-0.088043	0.11398	-0.47501	0.019989	0.025024	-0.12329	-0.014801	-0.031128	-0.22781	-0.31876	0.037079	-0.085602	0.054779	-0.24704	-0.38376	0.090332	-0.023041	0.055847	0.33722	-0.059509	-0.012512	0.001984	0	-0.007629	0.017548	-0.035706	-0.002289	-0.00824
31.97	-0.005188	-0.23819	0.063629	-0.00473	-0.056458	0.12604	-0.56656	0.011292	0.057526	-0.2214	-0.027924	-0.034637	-0.071106	-0.099487	0.029602	-0.10651	0.050812	-0.32883	-0.29068	0.13825	-0.032043	0.047455	0.32806	-0.057831	-0.00412	-0.00351	0.001221	-0.007477	0.034485	-0.11459	-0.000763	-0.011597
31.971	0.00351	-0.26627	0.059357	0.013428	-0.004425	0.067139	-0.67581	0.00412	0.075989	-0.224	-0.000153	0.001831	-0.21454	0.11414	-0.00885	-0.010681	0.06073	-0.35065	-0.30212	0.23148	-0.038605	0.025635	0.34058	-0.075378	0.006409	-0.005646	0.023041	-0.007324	-0.015564	-0.17151	0	-0.012665
31.972	0.010071	-0.24002	0.02182	0.015564	-0.045624	0.13901	-0.699	0.00946	0.020294	0.047913	0.001526	-0.17654	0.56915	-0.19989	-0.050812	0.020905	0.04776	-0.33951	-0.18723	0.20157	-0.048523	-0.003052	0.30441	-0.055389	0.00412	-0.004272	0.014343	-0.00061	-0.023499	-0.14328	-0.000153	-0.010223
31.973	0.01236	-0.15549	0.1001	0.02182	-0.065002	0.12909	-0.74493	-0.009308	-0.010986	0.29923	0.037994	-0.12344	0.10025	0.087433	-0.009308	0.056915	-0.00824	-0.24887	-0.14008	0.11643	-0.049591	-0.019531	0.29907	-0.05722	0.011749	-0.00885	0.026093	-0.007172	-0.062561	-0.10239	-0.005035	-0.011444
31.974	0.021667	-0.11139	0.1207	0.038757	0.03418	0.21316	-0.79285	-0.004883	0.080719	0.29404	-0.032654	-0.18723	-0.66086	-0.050964	-0.028687	0.023041	-0.042267	-0.24155	-0.09201	0.020447	-0.056763	-0.009766	0.25055	-0.044403	0.01358	-0.002136	-0.001984	-0.001984	-0.041199	-0.03891	-0.002289	0.000153
31.975	0.009918	-0.20721	0.041962	0.041962	0.027771	0.21668	-0.78995	-0.003662	0.19669	0.067444	-0.024719	-0.071869	0.1181	-0.026855	-0.02533	0.005951	-0.066528	-0.27298	-0.16205	-0.016632	-0.071259	0.018768	0.24231	-0.063019	0.021973	-0.000458	-0.00412	-0.004883	-0.095062	0.053406	-0.005493	-0.001068
31.976	0.000305	-0.2153	0.031433	0.014343	0.006714	-0.014191	-0.68649	0.001373	0.20615	-0.039215	-0.028534	-0.014343	1.358	-0.077209	-0.000763	0.003815	-0.066376	-0.24674	-0.15793	-0.09201	-0.091248	0.011597	0.24262	-0.006409	0.024109	0.00061	0.002289	-0.006714	-0.11398	0.078888	-0.002594	-0.008087
31.977	-0.003357	-0.16769	-0.016632	0.008698	-0.009918	0.19943	-0.58472	0.000763	0.23025	-0.033264	-0.071869	-0.000763	0.7666	-0.001526	0.009155	0.014954	-0.016785	-0.2739	-0.10132	-0.1152	-0.0737	0.021667	0.23743	-0.019379	0.021362	-0.00061	0.004272	0.000305	-0.066986	0.042725	-0.001526	-0.009613
31.978	0.00473	-0.1474	-0.066071	-0.023193	0.005951	0.271	-0.71945	0.012665	0.31265	-0.013733	-0.023041	0.010071	-0.86517	-0.038757	-0.048828	0.01358	-0.008087	-0.31464	-0.027313	-0.14572	-0.071411	0.01236	0.24765	-0.024261	0.026245	0.006104	0.022125	-0.001068	-0.078583	-0.00351	-0.002899	-0.005035
31.979	0.021515	-0.10635	-0.19104	-0.023346	-0.005646	0.23361	-0.89951	0.000763	0.3125	-0.016937	0.020294	0.001678	-0.36713	-0.092163	-0.10941	0.003204	0.014038	-0.31662	0.000458	-0.15793	-0.066528	0.027161	0.27481	-0.036926	0.040894	0.005798	0.040283	-0.003357	-0.00946	0.034637	-0.000763	-0.005035
31.98	0.019531	-0.10864	-0.26825	-0.007935	-0.032349	0.19226	-0.8638	-0.002899	0.215	-0.059662	-0.00946	0.006256	-0.024414	0.097656	-0.11032	0.001678	0.014954	-0.28442	-0.072937	-0.1648	-0.055389	0.020599	0.24033	0.022278	0.015411	0.001221	-0.010681	-0.000153	0.1799	0.04715	-0.001068	-0.009003
